Patient4_TMGait_0pt7_02_right_37_EMG.mot
version=1
nRows=40
nColumns=33
inDegrees=no
endheader
time	1LAddLong	2LGlutMax	3LGlutMed	4LIliopsoas	5LSemiMemb	6LBicFemLong	7LRecFem	8LVastMed	9LVastLat	10LGasMed	11LTibAnt	12lTibPost	13LPeroneusLong	14LSol	15LExtDigLong	16LFlexDigLong	17RAddLong	18RGlutMax	19RGlutMed	20RIliopsoas	21RSemiMemb	22RBicFemLong	23RRecFem	24RVastMed	25RVastLat	26RGasMed	27RTibAnt	28RTibPost	29RPeroneusLong	30RSol	31RExtDigLong	32RFlexDigLong
42.2	-0.03006	-0.097656	-0.1973	0.003052	0.026703	0.089417	0.15701	-0.000458	0.24658	0.079651	0.15656	0.003662	-0.1947	0.27603	0.53177	0.024109	-0.023041	-0.77606	-0.58273	-0.024872	-0.005188	0.15015	0.13916	-0.31509	-0.39597	0.074768	0.009613	0.013885	-0.12268	0.34103	-0.004425	-0.010681
42.201	-0.066071	-0.077515	-0.16769	-0.007629	0.008698	0.07431	0.1915	-0.001373	0.27725	0.048218	0.088501	-0.004272	-0.18921	0.28824	0.33981	0.014954	-0.00473	-0.69534	-0.27603	0.003662	0.02243	0.055695	0.058746	-0.44784	-0.48141	0.052643	0.035553	-0.013733	-0.1532	0.41199	0.001373	-0.011292
42.202	-0.053253	-0.072174	-0.20126	-0.029755	0.005493	0.044098	0.20844	-0.038757	0.30045	-0.008698	0.066071	0.00351	-0.065613	0.28397	-0.22964	0.014343	-0.022583	-0.56686	-0.033112	-0.12054	0.2034	-0.16861	0.16464	-0.29907	-0.56686	0.035248	0.08606	-0.036163	-0.080719	0.23315	-0.000458	-0.001526
42.203	-0.036926	-0.074768	-0.20645	-0.049744	0.003204	0.051117	0.21668	-0.01709	0.31525	-0.001373	0.021362	0.007019	-0.064697	0.18249	-0.61935	0.012054	-0.000305	-0.56061	-0.10513	-0.16769	0.17792	-0.16571	0.33066	-0.33615	-0.39871	0.00824	0.14923	-0.042877	-0.088959	0.091553	-0.00061	-0.006256
42.204	-0.023651	-0.040741	-0.12604	-0.034332	0.012817	0.016327	0.21347	0.005493	0.34592	0.016022	-0.17868	0.002747	-0.063477	0.17807	-0.63858	0.007629	0.003357	-0.36591	0.15152	-0.07843	-0.073547	-0.15152	0.42938	-0.31647	-0.25131	0.022736	0.15167	-0.047913	-0.091858	-0.048065	-0.002899	-0.001678
42.205	-0.021057	-0.048981	-0.078583	-0.018005	0.031128	-0.033875	0.20691	-0.000305	0.35782	0.009766	-0.32883	0.00351	-0.095978	0.10147	-0.27634	0.014954	-0.005493	-0.38589	-0.2945	0.003815	-0.30914	-0.068054	0.32288	-0.52887	-0.29816	-0.03067	0.11765	-0.054779	-0.11704	-0.12909	-0.007324	0.002289
42.206	-0.040894	-0.038147	-0.057678	0.014038	0.025635	-0.033875	0.20081	0.00824	0.34836	0.036926	-0.23819	0.003662	-0.14206	-0.051422	-0.093994	0.01297	-0.030212	-0.35828	-1.1537	0.17929	-0.38483	0.26047	0.24963	-0.39749	-0.23239	-0.09964	0.093384	-0.005951	-0.044098	-0.20187	-0.004578	-0.002136
42.207	-0.026703	-0.077667	-0.047607	0.02243	0.034637	-0.053864	0.20462	0.01297	0.35309	0.02182	-0.052795	-0.006866	-0.10132	-0.055542	-0.044556	0.006256	-0.001984	-0.2858	-0.031281	0.18509	0.1265	0.35645	0.27298	-0.15991	-0.16266	-0.056305	-0.054169	-0.024872	0.037689	-0.16281	-0.001831	-0.002594
42.208	-0.013885	-0.058136	0.010986	0.034485	0.041046	-0.046692	0.19943	-0.000305	0.36575	0.022583	0.1416	0.000916	-0.085297	-0.000916	0.39352	0.020905	-0.036163	-0.20569	0.53925	0.20462	0.21591	0.31067	0.22293	-0.10056	-0.14511	-0.022888	-0.013275	-0.027618	-0.13809	-0.10834	-0.002747	0.00061
42.209	-0.026245	-0.080719	0.032196	0.045166	0.03067	-0.016632	0.18066	0.00946	0.37003	0.01358	0.13702	0.009613	-0.048065	0.10162	-0.028992	0.017548	-0.11169	-0.2681	0.011292	0.097504	0.4538	-0.039215	0.25803	0.013275	0.066986	-0.046997	0.17792	0.020447	-0.2829	-0.086823	0.003052	-0.005341
42.21	-0.027618	-0.091553	0.05188	0.050507	0.024719	-0.024109	0.24033	0.006866	0.38956	-0.011139	0.1062	0.002747	-0.013275	0.14435	0.51971	0.017853	-0.073853	-0.33386	-0.44769	0.067444	0.42343	-0.47165	0.25253	0.002899	0.13962	0.000305	0.233	0.033722	-0.39017	-0.12054	-0.001678	-0.000305
42.211	-0.034485	-0.11948	0.072784	0.041199	0.018921	-0.053253	0.25955	0.00885	0.3772	-0.02655	0.061188	-0.004578	-0.030518	0.12634	0.17777	0.022888	0.021057	-0.40344	-0.94925	0.063782	0.3302	-0.71259	0.354	-0.075378	0.10193	0.062103	0.029449	-0.027466	1.0207	-0.20599	0.002441	0.007477
42.212	-0.031281	-0.12436	0.079346	0.06012	0.028381	-0.068512	0.26199	0.009766	0.39169	-0.024261	0.081329	0.001373	-0.14557	0.14526	-0.40665	-0.007782	0.06073	-0.55328	-1.4265	0.060883	0.21118	-0.78186	0.46051	0.027924	0.066223	0.046997	-0.18814	-0.045776	1.6913	-0.29755	-0.002289	0.007935
42.213	-0.037231	-0.098114	0.061493	0.06012	0.041504	-0.078888	0.28686	0.011444	0.40161	-0.028076	0.1062	0.002899	-0.16892	0.082703	-0.39093	0.006409	0.05249	-0.63568	-1.1345	0.080109	0.07019	-0.5632	0.37476	0.1207	0.093689	0.070648	-0.62042	-0.043945	1.9431	-0.068359	-0.002289	0.006866
42.214	-0.010681	-0.052032	0.042877	0.058746	0.052185	-0.093536	0.31799	0.013123	0.38757	-0.030365	0.061798	-0.001984	-0.13473	-0.014648	-0.25116	0.005798	0.006714	-0.66742	-0.53162	-0.001221	-0.38086	-0.085602	0.26825	0.27359	0.15259	0.059814	-0.41672	-0.003204	-0.099945	-0.050049	-0.004425	-0.000305
42.215	-0.024261	-0.033569	0.01709	0.039978	0.050354	-0.083313	0.31036	0.015411	0.37201	0.030365	0.039673	-0.013885	-0.093079	-0.048676	-0.049133	0.001526	-0.063934	-0.83374	-0.3363	-0.12146	-0.16617	0.27557	0.28366	0.30746	0.12009	0.040588	0.06073	0.023804	-1.5913	-0.1622	-0.006409	-0.002594
42.216	-0.034027	-0.047455	0.001831	0.031128	0.049133	-0.043793	0.3125	0.014954	0.34729	0.093842	0.066833	-0.001068	-0.10986	0.020599	-0.094299	0.009308	-0.06424	-1.0446	-1.5498	-0.001068	-0.023804	0.36529	0.33707	0.30319	0.073547	0.047455	-0.068054	-0.018158	-2.0256	-0.12894	-0.00412	-0.001678
42.217	-0.028381	-0.050812	0.032501	0.059967	0.03891	0.003052	0.30701	0.016632	0.3093	0.068207	0.049286	-0.003662	-0.10834	0.052338	-0.013123	0.002899	-0.017548	-1.0385	-1.7534	0.045929	-0.24948	0.49133	0.30441	0.15091	0.076904	0.061035	-0.092926	-0.026855	-0.26413	0.007019	-0.005798	-0.00061
42.218	-0.032196	-0.052338	0.054779	0.045929	0.025024	-0.03418	0.27573	0.015411	0.26977	0.031891	0.011749	0.002441	-0.092316	0.10986	0.082092	0.009613	0.039215	-0.99762	-1.2076	0.046082	-0.32745	0.70129	0.36011	0.054626	0.096283	0.10422	-0.088043	-0.023346	0.86441	0.14145	-0.005646	0.000458
42.219	-0.036926	-0.090027	0.077515	0.00824	0.022736	-0.032043	0.26337	0.024261	0.24414	0.036163	0.07843	0.001831	-0.077057	0.12299	0.15717	0.004272	0.004425	-0.88974	-0.68359	0.079041	-0.084076	0.60806	0.30472	0.17075	0.15167	0.10803	0.14404	-0.016174	0.24887	0.24078	-0.001373	-0.009308
42.22	-0.037689	-0.11169	0.13046	0.010376	0.019073	-0.018616	0.25787	0.016327	0.20966	0.005951	0.059967	-0.002289	-0.08255	0.097809	0.14755	0.003357	-0.022736	-0.81512	-0.63538	0.091705	0.030975	0.43716	0.3656	0.24674	0.14984	0.10437	0.14832	-0.049286	-0.66605	0.21591	-0.000916	-0.010376
42.221	-0.032349	-0.14572	0.18982	0.014648	0.019836	-0.046387	0.23499	0.012665	0.19119	-0.058746	0.014343	-0.002136	-0.096893	0.050812	0.12619	-0.000305	-0.072021	-0.84045	-0.39352	0.03952	0.11597	0.32257	0.42358	0.21927	0.000305	0.06897	-0.010681	0.00885	-1.4456	0.14694	-0.00473	-0.008545
42.222	-0.030518	-0.16312	0.21408	0.007782	0.028076	-0.061646	0.2507	0.024567	0.19562	-0.051727	-0.23041	-0.001526	-0.0914	0.037689	0.14191	0.008698	-0.069122	-0.8548	-0.29831	0.011292	-0.039215	0.28305	0.42618	0.079346	0.003815	-0.045471	-0.16647	0.011749	0.37888	0.00061	-0.003052	-0.003662
42.223	-0.006409	-0.23636	0.22278	-0.035095	0.026703	-0.053711	0.26886	0.015564	0.18768	-0.043335	-0.039368	-0.007477	-0.14557	0.081024	0.20691	0.012207	-0.055695	-0.74616	-0.18906	-0.008392	-0.040894	0.35553	0.39383	0.029297	0.02594	-0.14069	-0.24582	-0.11978	1.1234	-0.020447	-0.007935	-0.003815
42.224	0.002441	-0.28366	0.25726	-0.082397	0.02182	-0.039673	0.34866	0.013885	0.18524	-0.046997	0.14511	-0.001373	-0.14221	0.11993	0.17593	-0.00351	-0.050507	-0.67505	-0.47394	-0.003052	0.14145	0.30701	0.35141	0.10071	0.096283	-0.092316	-0.059509	-0.02243	0.17471	-0.011139	-0.002747	-0.00885
42.225	0.01236	-0.23697	0.28778	-0.071716	0.028534	-0.051422	0.44388	0.016327	0.20844	-0.08728	0.064697	-0.002747	-0.055847	0.1416	0.068665	0.010681	-0.039978	-0.64407	-0.83252	0.088959	0.22644	0.17151	0.2829	0.60638	0.026855	-0.029755	0.081787	0.15579	-0.058136	-0.086212	-0.002899	-0.023041
42.226	0.023346	-0.17593	0.29862	-0.030365	0.028076	-0.062561	0.51407	0.010376	0.19043	-0.062561	0.16281	0.002899	-0.097351	0.14877	0.033875	0.011292	-0.019531	-0.58273	-0.70786	0.074615	0.10193	0.041504	0.18631	0.88425	0.007019	0.001068	0.10086	0.10544	0.75653	-0.16235	-0.00351	-0.023499
42.227	0.02182	-0.12787	0.31128	-0.013733	0.033722	-0.069122	0.62668	0.007172	0.15884	-0.027771	0.1915	0.002747	-0.08255	0.14175	0.074158	0.01709	-0.042267	-0.53085	-0.19989	0.12009	-0.17319	-0.06134	-0.098114	0.82138	-0.088654	-0.018005	0.068512	-0.02655	1.1621	-0.14984	0.000305	-0.018005
42.228	0.019226	-0.053558	0.34943	-0.008698	0.03006	-0.0737	0.62164	0.018463	0.13428	0.031738	0.11093	0.002594	-0.10712	0.11093	0.1506	0.007477	-0.082855	-0.345	-0.48706	0.13855	-0.010376	-0.47516	-0.24826	0.37766	-0.081177	0.025177	0.059662	-0.022888	0.82489	0.050201	-0.000916	-0.024109
42.229	0.016327	0.001831	0.36163	-0.00473	0.029907	-0.076294	0.62485	0.013733	0.094604	0.006866	-0.26337	0.00351	-0.11444	0.055847	0.26459	0.005646	-0.035248	-0.30991	-0.32898	0.008698	0.047302	-0.78186	0.028229	-0.12177	-0.019684	-0.000305	-0.099335	0.003967	1.1876	0.21683	-0.002136	-0.02533
42.23	-0.015717	0.049896	0.38361	0.017242	0.037079	-0.061951	0.50232	0.013275	0.030212	-0.03067	-0.15167	0.004578	-0.10254	0.01297	0.20554	0.002441	0.032196	-0.28976	-0.16724	-0.12375	-0.42343	-0.76965	0.040131	-0.50629	0.007172	0.000153	-0.1207	0.06958	0.38361	0.24704	-0.007782	-0.021667
42.231	-0.020905	0.12375	0.38895	0.02533	0.020599	-0.075836	0.4628	0.01358	-0.006561	-0.066071	-0.08255	0.002899	-0.057983	0.027924	0.46982	0.022583	0.05249	-0.27374	-0.055847	-0.16449	-0.43945	-0.5278	0.067902	-0.73547	-0.057831	-0.008392	0.025482	-0.11078	-0.72083	0.024719	-0.002441	-0.021973
42.232	-0.002899	0.27206	0.39032	-0.036926	0.033722	-0.038147	0.36255	0.013733	-0.03006	-0.089569	-0.018463	0.005646	-0.072174	0.097656	0.39093	0.009613	0.076141	-0.25253	-0.67276	-0.1033	-0.33707	-0.3186	0.13473	-0.60257	-0.13367	0.003967	-0.020752	-0.10712	-0.4808	-0.048828	-0.002594	-0.025024
42.233	-0.016022	0.41168	0.392	-0.056152	0.037231	-0.051727	0.29175	0.023346	-0.046387	-0.083313	0.09079	0.000305	-0.083923	0.15182	-0.48019	0.00473	0.054474	-0.10101	-1.1711	-0.16129	-0.009155	-0.16495	0.2034	-0.38742	0.18997	0.001373	-0.089569	0.099945	0.13596	-0.037537	-0.001526	-0.022888
42.234	-0.007629	0.53665	0.40741	-0.065918	0.033417	-0.026703	0.25803	0.014038	-0.074158	-0.080872	0.14984	0.005646	-0.093536	0.17746	-0.33905	-0.018463	0.027771	-0.085144	-1.0033	-0.12772	-0.11093	0.13825	0.17487	-0.070343	0.31006	-0.010376	-0.064392	0.062103	-0.34576	-0.081177	0.003815	-0.02533
42.235	-0.027008	0.61706	0.3952	-0.032349	0.028229	0.009918	0.16937	0.021973	-0.097046	-0.096436	0.058136	0.001984	-0.077515	0.15366	-0.09552	-0.020294	-0.006561	0.016785	-0.9903	-0.049286	-0.69855	0.17731	0.087433	0.067902	0.1831	-0.00946	0.001373	0.051117	-0.8696	-0.10056	-0.002594	-0.015411
42.236	-0.012665	0.69794	0.40207	0.000305	0.016022	0.041504	0.22186	0.021667	-0.10971	-0.11459	-0.14465	0.010529	0.013733	0.22171	-0.24963	-0.010834	-0.009918	-0.19012	-0.2272	-0.1178	-0.30518	0.11139	0.069122	0.020447	-0.029755	-0.020447	0.10895	0.020752	0.25772	0.052795	0	-0.004272
42.237	-0.01236	0.78598	0.39185	0.012207	0.017548	0.049744	0.26199	0.031738	-0.16052	-0.10422	-0.20752	0.006714	-0.04837	0.19867	-0.15595	-0.014801	0.00824	-0.27908	0.080719	-0.10468	0.30609	0.016174	0.069275	0.073395	-0.26733	-0.005646	0.21347	-0.012207	0.3508	0.014801	0.000458	-0.00824
42.238	-0.005798	0.90714	0.38895	0.02594	0.015411	0.045319	0.38589	0.030212	-0.1886	-0.070038	-0.14954	0.001068	-0.1149	0.10773	-0.050659	-0.018005	0.018158	-0.13504	-0.081024	-0.14435	0.29297	-0.05188	-0.18539	0.082397	-0.34378	0.022888	0.17639	-0.023346	1.3097	-0.11047	0.002289	-0.007935
42.239	-0.002747	0.94177	0.41824	0.029755	0.016632	0.039215	0.44739	0.028839	-0.1915	-0.073395	-0.068054	0.006714	-0.12405	0.057526	0.37003	-0.016174	0.035706	0.16235	-0.23056	-0.14481	0.30395	-0.29221	-0.22369	0.10696	-0.29785	0.02594	0.1033	0.033417	2.0027	-0.19272	-0.009918	0.001221
